<?xml version="1.0" standalone="no"?><!DOCTYPE svg PUBLIC "-//W3C//DTD SVG 1.1//EN" "http://www.w3.org/Graphics/SVG/1.1/DTD/svg11.dtd"><svg t="1582193930778" class="icon" viewBox="0 0 1072 1024" version="1.1" xmlns="http://www.w3.org/2000/svg" p-id="6006" xmlns:xlink="http://www.w3.org/1999/xlink" width="209.375" height="200"><defs><style type="text/css"></style></defs><path d="M489.967046 484.389782m-484.389782 0a484.389782 484.389782 0 1 0 968.779565 0 484.389782 484.389782 0 1 0-968.779565 0Z" fill="#373740" p-id="6007"></path><path d="M963.700254 386.543046C919.136394 165.661306 723.442921 0 489.967046 0c-267.38316 0-484.389782 217.006623-484.389782 484.389782 0 117.222327 41.657521 223.788079 110.44087 307.103122 82.346263 44.56386 177.28666 70.720908 277.070956 70.720909 284.821192 0 521.203406-205.381268 570.611164-475.670767z" fill="#464650" p-id="6008"></path><path d="M586.845003 367.167455c0 53.282876-43.59508 96.877956-96.877957 96.877957s-96.877956-43.59508-96.877956-96.877957c0-106.565752-142.410596-147.254494-195.693472-54.251656C165.425892 368.136235 147.98786 434.013245 151.862978 503.765374c9.687796 168.567644 145.316935 306.134342 314.853359 317.759697C665.316148 835.087985 830.008674 678.145695 830.008674 483.421003c0-62.970672-17.438032-121.097446-46.50142-171.473983-55.220435-91.065279-196.662252-51.345317-196.662251 55.220435z" fill="#FFFFFF" p-id="6009"></path><path d="M286.523338 406.887417m-48.438978 0a48.438978 48.438978 0 1 0 96.877956 0 48.438978 48.438978 0 1 0-96.877956 0Z" fill="#373740" p-id="6010"></path><path d="M693.410755 406.887417m-48.438978 0a48.438978 48.438978 0 1 0 96.877956 0 48.438978 48.438978 0 1 0-96.877956 0Z" fill="#373740" p-id="6011"></path><path d="M553.906498 484.389782H421.183697c-22.28193 0-39.719962-18.406812-39.719962-39.719962 0-22.28193 18.406812-39.719962 39.719962-39.719962h132.722801c22.28193 0 39.719962 18.406812 39.719962 39.719962 0 21.31315-18.406812 39.719962-39.719962 39.719962z" fill="#F44444" p-id="6012"></path></svg>