<?xml version="1.0" standalone="no"?><!DOCTYPE svg PUBLIC "-//W3C//DTD SVG 1.1//EN" "http://www.w3.org/Graphics/SVG/1.1/DTD/svg11.dtd"><svg t="1582193937947" class="icon" viewBox="0 0 1024 1024" version="1.1" xmlns="http://www.w3.org/2000/svg" p-id="6266" xmlns:xlink="http://www.w3.org/1999/xlink" width="200" height="200"><defs><style type="text/css"></style></defs><path d="M512 512m-512 0a512 512 0 1 0 1024 0 512 512 0 1 0-1024 0Z" fill="#2E91CE" p-id="6267"></path><path d="M1013.76 408.576C965.632 175.104 759.808 0 512 0 229.376 0 0 229.376 0 512c0 123.904 44.032 236.544 116.736 324.608C203.776 884.736 303.104 911.36 409.6 911.36c301.056 0 550.912-217.088 604.16-502.784z" fill="#61A3E0" p-id="6268"></path><path d="M296.96 460.8m-92.16 0a92.16 92.16 0 1 0 184.32 0 92.16 92.16 0 1 0-184.32 0Z" fill="#1C6399" p-id="6269"></path><path d="M727.04 460.8m-92.16 0a92.16 92.16 0 1 0 184.32 0 92.16 92.16 0 1 0-184.32 0Z" fill="#1C6399" p-id="6270"></path><path d="M834.56 364.544c-60.416 16.384-121.856-19.456-138.24-79.872-3.072-11.264 3.072-22.528 14.336-24.576 11.264-3.072 22.528 3.072 24.576 14.336 10.24 37.888 49.152 60.416 88.064 50.176 11.264-3.072 22.528 3.072 24.576 14.336 4.096 11.264-2.048 22.528-13.312 25.6zM189.44 364.544c60.416 16.384 121.856-19.456 138.24-79.872 3.072-11.264-3.072-22.528-14.336-24.576-11.264-3.072-22.528 3.072-24.576 14.336-10.24 37.888-49.152 60.416-88.064 50.176-11.264-3.072-22.528 3.072-24.576 14.336-4.096 11.264 2.048 22.528 13.312 25.6z" fill="#1C6399" p-id="6271"></path><path d="M696.32 798.72H327.68c-51.2 0-92.16-40.96-92.16-92.16s40.96-92.16 92.16-92.16h368.64c51.2 0 92.16 40.96 92.16 92.16s-40.96 92.16-92.16 92.16z" fill="#FFFFFF" p-id="6272"></path><path d="M696.32 614.4c51.2 0 92.16 40.96 92.16 92.16s-40.96 92.16-92.16 92.16H327.68c-51.2 0-92.16-40.96-92.16-92.16s40.96-92.16 92.16-92.16h368.64m0-20.48H327.68c-62.464 0-112.64 50.176-112.64 112.64s50.176 112.64 112.64 112.64h368.64c62.464 0 112.64-50.176 112.64-112.64s-50.176-112.64-112.64-112.64z" fill="#1C6399" p-id="6273"></path><path d="M788.48 716.8H669.696v81.92h-20.48v-81.92h-77.824v81.92h-20.48v-81.92h-77.824v81.92h-20.48v-81.92h-77.824v81.92h-20.48v-81.92H235.52v-20.48h118.784v-81.92h20.48v81.92h77.824v-81.92h20.48v81.92h77.824v-81.92h20.48v81.92h77.824v-81.92h20.48v81.92H788.48z" fill="#1C6399" p-id="6274"></path></svg>