<?xml version="1.0" standalone="no"?><!DOCTYPE svg PUBLIC "-//W3C//DTD SVG 1.1//EN" "http://www.w3.org/Graphics/SVG/1.1/DTD/svg11.dtd"><svg t="1582193927165" class="icon" viewBox="0 0 1027 1024" version="1.1" xmlns="http://www.w3.org/2000/svg" p-id="5879" xmlns:xlink="http://www.w3.org/1999/xlink" width="200.5859375" height="200"><defs><style type="text/css"></style></defs><path d="M284.162537 660.677899l-158.319128 91.337958c-38.564916 22.327056-88.29336 9.133796-110.620416-29.43112-22.327056-38.564916-9.133796-88.29336 29.43112-110.620416l158.319128-91.337958 81.189296 140.051536zM738.822597 660.677899l158.319127 91.337958c38.564916 22.327056 88.29336 9.133796 110.620417-29.43112 22.327056-38.564916 9.133796-88.29336-29.43112-110.620416l-158.319128-91.337958-81.189296 140.051536z" fill="#EDEDED" p-id="5880"></path><path d="M961.078295 727.659068l-5.074331-17.252725c-27.401388-98.442022-40.594648-200.943508-40.594648-302.430129 0-224.285431-180.646184-405.946482-404.931615-405.946482-223.270565 0-404.931615 181.661051-404.931616 405.946482 0 102.501487-14.208127 203.988107-40.594648 302.430129l-2.029732 6.089197c-25.371655 90.323092 6.089197 188.765114 81.189296 244.582755 33.490585 25.371655 50.74331 24.356789 67.996036 24.356789 7.104063 0 14.208127-3.044599 20.297324-8.118929 14.208127-11.163528 34.505451-11.163528 48.713578 0l10.148662 8.118929c54.802775 41.609514 128.888008 38.564916 184.705649-1.014866 20.297324-14.208127 47.698712-14.208127 67.996035 1.014866 54.802775 40.594648 128.888008 40.594648 183.690783 0l10.148662-8.118929c14.208127-10.148662 33.490585-11.163528 47.698712 0 7.104063 5.074331 15.222993 8.11893 23.341923 8.118929 15.222993 1.014866 24.356789 1.014866 44.654113-10.148662 91.337958-46.683845 133.962339-151.215064 107.575817-247.627354z" fill="#EDEDED" p-id="5881"></path><path d="M105.546085 851.472745c36.535183 28.416254 55.817641 27.401388 76.114966 26.386522 8.11893 0 16.237859-4.059465 22.327056-9.133796 16.237859-12.178394 37.55005-12.178394 53.787909 0l11.163528 8.118929c60.891972 45.668979 143.096135 42.624381 205.002973-1.014866 22.327056-16.237859 52.773043-15.222993 75.100099 1.014866 59.877106 45.668979 143.096135 45.668979 203.988107 0l11.163529-9.133795c15.222993-12.178394 37.55005-12.178394 52.773042 0 7.104063 6.089197 16.237859 9.133796 25.371655 9.133795 16.237859 1.014866 26.386521 1.014866 49.728444-11.163528 30.445986-16.237859 55.817641-37.55005 75.1001-63.936571 2.029732-25.371655 0-50.74331-7.104064-76.114965l-5.074331-17.252725c-27.401388-98.442022-40.594648-200.943508-40.594648-302.430129 0-224.285431-180.646184-405.946482-404.931616-405.946482-223.270565 0-404.931615 181.661051-404.931615 405.946482 0 102.501487-14.208127 203.988107-40.594648 302.430129l-2.029733 6.089197c-8.11893 28.416254-10.148662 56.832507-7.104063 85.248761 15.222993 20.297324 31.460852 37.55005 50.74331 51.758176z" fill="#F4F4F4" p-id="5882"></path><path d="M620.083251 567.310208c23.341923-4.059465 45.668979 11.163528 50.74331 33.490585C681.990089 658.648167 625.157582 729.688801 511.492567 729.688801c-107.575818 0-171.512389-71.040634-158.319128-128.888008 5.074331-22.327056 27.401388-37.55005 50.74331-33.490585 71.040634 12.178394 144.111001 12.178394 216.166502 0z" fill="#464650" p-id="5883"></path><path d="M258.790882 443.496531a76.114965 76.114965 0 1 0 152.229931 0 76.114965 76.114965 0 1 0-152.229931 0Z" fill="#464650" p-id="5884"></path><path d="M612.979187 443.496531a76.114965 76.114965 0 1 0 152.229931 0 76.114965 76.114965 0 1 0-152.229931 0Z" fill="#464650" p-id="5885"></path></svg>