<?xml version="1.0" standalone="no"?><!DOCTYPE svg PUBLIC "-//W3C//DTD SVG 1.1//EN" "http://www.w3.org/Graphics/SVG/1.1/DTD/svg11.dtd"><svg t="1582193905321" class="icon" viewBox="0 0 1024 1024" version="1.1" xmlns="http://www.w3.org/2000/svg" p-id="5235" xmlns:xlink="http://www.w3.org/1999/xlink" width="200" height="200"><defs><style type="text/css"></style></defs><path d="M0 0s133.12 122.88 215.04 102.4C215.04 102.4 51.2 604.16 0 0zM1013.76 0S880.64 122.88 798.72 102.4c0 0 163.84 501.76 215.04-102.4z" fill="#D44040" p-id="5236"></path><path d="M512 512m-512 0a512 512 0 1 0 1024 0 512 512 0 1 0-1024 0Z" fill="#D44040" p-id="5237"></path><path d="M1013.76 408.576C965.632 175.104 759.808 0 512 0 229.376 0 0 229.376 0 512c0 123.904 44.032 236.544 116.736 324.608C203.776 884.736 303.104 911.36 409.6 911.36c301.056 0 550.912-217.088 604.16-502.784z" fill="#F44444" p-id="5238"></path><path d="M296.96 409.6m-92.16 0a92.16 92.16 0 1 0 184.32 0 92.16 92.16 0 1 0-184.32 0Z" fill="#873A18" p-id="5239"></path><path d="M727.04 409.6m-92.16 0a92.16 92.16 0 1 0 184.32 0 92.16 92.16 0 1 0-184.32 0Z" fill="#873A18" p-id="5240"></path><path d="M348.16 378.88l-173.056-63.488c-16.384-6.144-24.576-23.552-18.432-38.912 6.144-16.384 23.552-24.576 38.912-18.432L368.64 320.512c16.384 6.144 24.576 23.552 18.432 38.912-5.12 16.384-23.552 24.576-38.912 19.456zM848.896 315.392L675.84 378.88c-16.384 6.144-33.792-2.048-38.912-18.432-6.144-16.384 2.048-33.792 18.432-38.912l173.056-63.488c16.384-6.144 33.792 2.048 38.912 18.432 6.144 15.36-2.048 33.792-18.432 38.912z" fill="#873A18" p-id="5241"></path><path d="M653.312 574.464c-9.216-2.048-19.456 3.072-22.528 11.264-9.216 22.528-27.648 39.936-50.176 47.104-44.032 15.36-92.16 15.36-136.192 0-22.528-8.192-40.96-25.6-50.176-47.104-4.096-9.216-13.312-13.312-22.528-11.264-12.288 2.048-19.456 15.36-15.36 27.648 13.312 32.768 40.96 58.368 74.752 70.656 52.224 18.432 110.592 18.432 162.816 0 33.792-11.264 61.44-37.888 74.752-70.656 4.096-12.288-3.072-25.6-15.36-27.648z" fill="#873A18" p-id="5242"></path></svg>