<?xml version="1.0" standalone="no"?><!DOCTYPE svg PUBLIC "-//W3C//DTD SVG 1.1//EN" "http://www.w3.org/Graphics/SVG/1.1/DTD/svg11.dtd"><svg t="1582193942904" class="icon" viewBox="0 0 1064 1024" version="1.1" xmlns="http://www.w3.org/2000/svg" p-id="6395" xmlns:xlink="http://www.w3.org/1999/xlink" width="207.8125" height="200"><defs><style type="text/css"></style></defs><path d="M531.692308 531.692308m-492.307693 0a492.307692 492.307692 0 1 0 984.615385 0 492.307692 492.307692 0 1 0-984.615385 0Z" fill="#373740" p-id="6396"></path><path d="M1014.153846 432.246154C967.876923 207.753846 769.969231 39.384615 531.692308 39.384615 259.938462 39.384615 39.384615 259.938462 39.384615 531.692308c0 119.138462 42.338462 227.446154 112.246154 312.123077C235.323077 890.092308 330.830769 915.692308 433.230769 915.692308c289.476923 0 529.723077-208.738462 580.923077-483.446154z" fill="#444444" p-id="6397"></path><path d="M777.846154 600.615385H285.538462c-60.061538 0-108.307692-48.246154-108.307693-108.307693s48.246154-108.307692 108.307693-108.307692h492.307692c60.061538 0 108.307692 48.246154 108.307692 108.307692s-48.246154 108.307692-108.307692 108.307693z" fill="#FFD73A" p-id="6398"></path><path d="M344.615385 521.846154c49.230769 0 88.615385-39.384615 88.615384-88.615385 0-18.707692-5.907692-35.446154-14.769231-49.230769H285.538462c-4.923077 0-9.846154 0.984615-15.753847 0.984615-8.861538 13.784615-13.784615 30.523077-13.784615 48.246154 0 49.230769 39.384615 88.615385 88.615385 88.615385zM718.769231 521.846154c49.230769 0 88.615385-39.384615 88.615384-88.615385 0-17.723077-4.923077-34.461538-13.784615-48.246154-5.907692 0-10.830769-0.984615-15.753846-0.984615H644.923077c-9.846154 13.784615-14.769231 30.523077-14.769231 49.230769 0 49.230769 39.384615 88.615385 88.615385 88.615385z" fill="#873A18" p-id="6399"></path><path d="M334.769231 167.384615c0 92.553846-74.830769 167.384615-167.384616 167.384616S0 259.938462 0 167.384615c0-48.246154 133.907692 30.523077 167.384615 0 29.538462-27.569231-43.323077-167.384615 0-167.384615 92.553846 0 167.384615 74.830769 167.384616 167.384615z" fill="#444444" p-id="6400"></path></svg>