<?xml version="1.0" standalone="no"?><!DOCTYPE svg PUBLIC "-//W3C//DTD SVG 1.1//EN" "http://www.w3.org/Graphics/SVG/1.1/DTD/svg11.dtd"><svg t="1582193909820" class="icon" viewBox="0 0 1024 1024" version="1.1" xmlns="http://www.w3.org/2000/svg" p-id="5363" xmlns:xlink="http://www.w3.org/1999/xlink" width="200" height="200"><defs><style type="text/css"></style></defs><path d="M512 512m-512 0a512 512 0 1 0 1024 0 512 512 0 1 0-1024 0Z" fill="#FEC43C" p-id="5364"></path><path d="M1013.76 408.576C965.632 175.104 759.808 0 512 0 229.376 0 0 229.376 0 512c0 123.904 44.032 236.544 116.736 324.608C203.776 884.736 303.104 911.36 409.6 911.36c301.056 0 550.912-217.088 604.16-502.784z" fill="#FFD73A" p-id="5365"></path><path d="M296.96 430.08m-92.16 0a92.16 92.16 0 1 0 184.32 0 92.16 92.16 0 1 0-184.32 0Z" fill="#873A18" p-id="5366"></path><path d="M727.04 430.08m-92.16 0a92.16 92.16 0 1 0 184.32 0 92.16 92.16 0 1 0-184.32 0Z" fill="#873A18" p-id="5367"></path><path d="M583.68 655.36H440.32c-17.408 0-30.72-13.312-30.72-30.72s13.312-30.72 30.72-30.72h143.36c17.408 0 30.72 13.312 30.72 30.72s-13.312 30.72-30.72 30.72z" fill="#873A18" p-id="5368"></path></svg>