<?xml version="1.0" standalone="no"?><!DOCTYPE svg PUBLIC "-//W3C//DTD SVG 1.1//EN" "http://www.w3.org/Graphics/SVG/1.1/DTD/svg11.dtd"><svg t="1582193934816" class="icon" viewBox="0 0 1136 1024" version="1.1" xmlns="http://www.w3.org/2000/svg" p-id="6133" xmlns:xlink="http://www.w3.org/1999/xlink" width="221.875" height="200"><defs><style type="text/css"></style></defs><path d="M28.672 375.808S-43.008 101.376 40.96 65.536s250.88 22.528 250.88 22.528S99.328 242.688 28.672 375.808zM995.328 375.808s71.68-274.432-12.288-310.272-250.88 22.528-250.88 22.528 192.512 154.624 263.168 287.744z" fill="#FFDDCB" p-id="6134"></path><path d="M1024 520.192c0 303.104-229.376 382.976-512 382.976s-512-79.872-512-382.976C0 245.76 229.376 3.072 512 3.072S1024 245.76 1024 520.192z" fill="#FFDDCB" p-id="6135"></path><path d="M512 832.512c270.336 0 492.544-73.728 510.976-346.112C1004.544 225.28 782.336 3.072 512 3.072S19.456 225.28 1.024 485.376C19.456 758.784 241.664 832.512 512 832.512z" fill="#FFE5D6" p-id="6136"></path><path d="M92.16 495.616a102.4 60.416 0 1 0 204.8 0 102.4 60.416 0 1 0-204.8 0Z" fill="#FFDDCB" p-id="6137"></path><path d="M727.04 493.568a102.4 60.416 0 1 0 204.8 0 102.4 60.416 0 1 0-204.8 0Z" fill="#FFDDCB" p-id="6138"></path><path d="M286.72 412.672m-71.68 0a71.68 71.68 0 1 0 143.36 0 71.68 71.68 0 1 0-143.36 0Z" fill="#353535" p-id="6139"></path><path d="M266.24 392.192m-20.48 0a20.48 20.48 0 1 0 40.96 0 20.48 20.48 0 1 0-40.96 0Z" fill="#5E5E5E" p-id="6140"></path><path d="M737.28 412.672m-71.68 0a71.68 71.68 0 1 0 143.36 0 71.68 71.68 0 1 0-143.36 0Z" fill="#353535" p-id="6141"></path><path d="M716.8 392.192m-20.48 0a20.48 20.48 0 1 0 40.96 0 20.48 20.48 0 1 0-40.96 0Z" fill="#5E5E5E" p-id="6142"></path><path d="M655.36 590.848c0 59.392-64.512 89.088-143.36 89.088s-143.36-29.696-143.36-89.088 64.512-115.712 143.36-115.712 143.36 56.32 143.36 115.712z" fill="#FFD3C0" p-id="6143"></path><path d="M440.32 582.656a35.84 25.6 90 1 0 51.2 0 35.84 25.6 90 1 0-51.2 0Z" fill="#FFE5D6" p-id="6144"></path><path d="M532.48 582.656a35.84 25.6 90 1 0 51.2 0 35.84 25.6 90 1 0-51.2 0Z" fill="#FFE5D6" p-id="6145"></path></svg>