<?xml version="1.0" standalone="no"?><!DOCTYPE svg PUBLIC "-//W3C//DTD SVG 1.1//EN" "http://www.w3.org/Graphics/SVG/1.1/DTD/svg11.dtd"><svg t="1582193921611" class="icon" viewBox="0 0 1024 1024" version="1.1" xmlns="http://www.w3.org/2000/svg" p-id="5747" xmlns:xlink="http://www.w3.org/1999/xlink" width="200" height="200"><defs><style type="text/css"></style></defs><path d="M512 512m-512 0a512 512 0 1 0 1024 0 512 512 0 1 0-1024 0Z" fill="#FEC43C" p-id="5748"></path><path d="M1013.76 408.576C965.632 175.104 759.808 0 512 0 229.376 0 0 229.376 0 512c0 123.904 44.032 236.544 116.736 324.608C203.776 884.736 303.104 911.36 409.6 911.36c301.056 0 550.912-217.088 604.16-502.784z" fill="#FFD73A" p-id="5749"></path><path d="M296.96 337.92m-92.16 0a92.16 92.16 0 1 0 184.32 0 92.16 92.16 0 1 0-184.32 0Z" fill="#873A18" p-id="5750"></path><path d="M727.04 337.92m-92.16 0a92.16 92.16 0 1 0 184.32 0 92.16 92.16 0 1 0-184.32 0Z" fill="#873A18" p-id="5751"></path><path d="M512 778.24c-134.144 0-245.76-97.28-266.24-225.28-3.072-21.504 13.312-40.96 35.84-40.96h460.8c22.528 0 38.912 19.456 35.84 40.96-20.48 128-132.096 225.28-266.24 225.28z" fill="#873A18" p-id="5752"></path><path d="M742.4 512h-460.8c-22.528 0-38.912 19.456-35.84 40.96 1.024 7.168 2.048 14.336 4.096 21.504h523.264c2.048-7.168 3.072-14.336 4.096-21.504 4.096-21.504-13.312-40.96-34.816-40.96z" fill="#FFFFFF" p-id="5753"></path><path d="M587.776 635.904c-30.72 0-58.368 15.36-75.776 38.912-16.384-23.552-44.032-38.912-75.776-38.912-48.128 0-88.064 36.864-92.16 83.968C390.144 756.736 448.512 778.24 512 778.24c63.488 0 121.856-21.504 167.936-58.368-4.096-47.104-44.032-83.968-92.16-83.968z" fill="#F44444" p-id="5754"></path><path d="M1000.448 251.904C901.12 215.04 793.6 205.824 689.152 226.304L512 256l-177.152-29.696c-104.448-20.48-211.968-12.288-311.296 25.6-7.168 0-13.312 6.144-13.312 13.312v39.936c0 12.288 11.264 22.528 23.552 20.48l9.216-1.024c12.288-2.048 23.552 8.192 23.552 20.48l-7.168 73.728c-7.168 76.8 53.248 143.36 130.048 143.36h145.408c43.008 0 81.92-26.624 97.28-67.584l43.008-117.76c12.288-32.768 58.368-32.768 69.632 0l43.008 117.76c15.36 40.96 53.248 67.584 97.28 67.584h145.408c77.824 0 138.24-66.56 130.048-143.36l-7.168-73.728c0-12.288 11.264-22.528 23.552-20.48l9.216 1.024c12.288 2.048 23.552-8.192 23.552-20.48v-33.792c4.096-9.216-1.024-16.384-9.216-19.456z" fill="#333333" p-id="5755"></path><path d="M46.08 287.744m-15.36 0a15.36 15.36 0 1 0 30.72 0 15.36 15.36 0 1 0-30.72 0Z" fill="#FFFFFF" p-id="5756"></path><path d="M977.92 287.744m-15.36 0a15.36 15.36 0 1 0 30.72 0 15.36 15.36 0 1 0-30.72 0Z" fill="#FFFFFF" p-id="5757"></path><path d="M144.384 474.112s13.312 34.816 64.512 29.696c0 0 43.008-34.816 51.2-55.296s43.008-38.912 43.008-38.912 38.912-34.816 47.104-51.2c8.192-17.408 55.296-47.104 55.296-47.104s-51.2-17.408-86.016-13.312c0 0-19.456 23.552-31.744 45.056 0 0-13.312 13.312-29.696 21.504-17.408 8.192-47.104 38.912-55.296 60.416s-58.368 49.152-58.368 49.152zM637.952 474.112s13.312 34.816 64.512 29.696c0 0 43.008-34.816 51.2-55.296s43.008-38.912 43.008-38.912 38.912-34.816 47.104-51.2c8.192-17.408 55.296-47.104 55.296-47.104s-51.2-17.408-86.016-13.312c0 0-19.456 23.552-31.744 45.056 0 0-13.312 13.312-29.696 21.504-17.408 8.192-47.104 38.912-55.296 60.416-8.192 21.504-58.368 49.152-58.368 49.152z" fill="#FFFFFF" p-id="5758"></path></svg>