<?xml version="1.0" standalone="no"?><!DOCTYPE svg PUBLIC "-//W3C//DTD SVG 1.1//EN" "http://www.w3.org/Graphics/SVG/1.1/DTD/svg11.dtd"><svg t="1582193946554" class="icon" viewBox="0 0 1024 1024" version="1.1" xmlns="http://www.w3.org/2000/svg" p-id="6521" xmlns:xlink="http://www.w3.org/1999/xlink" width="200" height="200"><defs><style type="text/css"></style></defs><path d="M512 512m-512 0a512 512 0 1 0 1024 0 512 512 0 1 0-1024 0Z" fill="#42A853" p-id="6522"></path><path d="M1013.76 408.576C965.632 175.104 759.808 0 512 0 229.376 0 0 229.376 0 512c0 123.904 44.032 236.544 116.736 324.608C203.776 884.736 303.104 911.36 409.6 911.36c301.056 0 550.912-217.088 604.16-502.784z" fill="#4FB663" p-id="6523"></path><path d="M372.736 329.728c12.288-4.096 25.6 3.072 27.648 16.384 7.168 53.248-23.552 106.496-75.776 125.952-52.224 19.456-110.592-2.048-139.264-47.104-7.168-11.264-2.048-25.6 10.24-30.72l177.152-64.512zM651.264 329.728c-12.288-4.096-25.6 3.072-27.648 16.384-7.168 53.248 23.552 106.496 75.776 125.952 52.224 19.456 110.592-2.048 139.264-47.104 7.168-11.264 2.048-25.6-10.24-30.72l-177.152-64.512z" fill="#2C8239" p-id="6524"></path><path d="M696.32 680.96c-33.792 0-61.44-27.648-61.44-61.44s27.648-61.44 61.44-61.44c11.264 0 20.48-9.216 20.48-20.48s-9.216-20.48-20.48-20.48c-49.152 0-91.136 34.816-100.352 81.92H428.032c-9.216-47.104-51.2-81.92-100.352-81.92-11.264 0-20.48 9.216-20.48 20.48s9.216 20.48 20.48 20.48c33.792 0 61.44 27.648 61.44 61.44s-27.648 61.44-61.44 61.44c-11.264 0-20.48 9.216-20.48 20.48s9.216 20.48 20.48 20.48c49.152 0 91.136-34.816 100.352-81.92h167.936c9.216 47.104 51.2 81.92 100.352 81.92 11.264 0 20.48-9.216 20.48-20.48s-9.216-20.48-20.48-20.48z" fill="#2C8239" p-id="6525"></path></svg>